
<svg xmlns="http://www.w3.org/2000/svg" xmlns:xlink="http://www.w3.org/1999/xlink" viewBox="0 0 203.9 259.2">
  <defs>
    <path id="a" d="M96.873 149.936l.214-18.898 16.198.184-.214 18.898z"/>
  </defs>
  <clipPath id="b">
    <use xlink:href="#a" overflow="visible"/>
  </clipPath>
  <path d="M108.6 140.4c0 2-1.6 3.5-3.6 3.5s-3.5-1.6-3.5-3.6 1.6-3.5 3.6-3.5c2 .1 3.5 1.7 3.5 3.6zm3.2-.8c-.3.5-.5 1.1-.9 1.6.1.2.2.3.3.5.4.9.9 1.9 1.2 3 .2.6.3 1.2.4 1.9 0 .7 0 1.4-.3 2.1-.2.3-.4.7-.8.9l-.1.1-.1.1c-.1.1-.2.1-.3.1-.2.1-.4.1-.6.2-.8.1-1.6-.1-2.4-.3-1.2-.4-2.3-1.1-3.3-1.9-1 .7-2.1 1.4-3.3 1.8-.7.2-1.5.4-2.4.3-.2 0-.4-.1-.6-.2-.1 0-.2-.1-.3-.1l-.1-.1-.1-.1c-.3-.2-.6-.6-.7-.9-.3-.7-.3-1.4-.2-2.1.1-.7.2-1.3.4-1.8.4-1.1.9-2.1 1.3-3 .1-.2.2-.3.3-.5-.3-.5-.6-1-.8-1.6-.7-1.5-1.2-3-1.3-4.6-.1-.8 0-1.6.3-2.4.2-.4.4-.7.7-1l.1-.1.1-.1c.1 0 .2-.1.3-.1.2-.1.4-.1.6-.2.8-.1 1.5.1 2.1.3.6.2 1.2.5 1.7.9.8.5 1.5 1.1 2.1 1.6.6-.5 1.3-1.1 2.2-1.6.5-.3 1.1-.6 1.7-.8.6-.2 1.3-.4 2.1-.2.2 0 .4.1.6.2.1 0 .2.1.3.1l.1.1.1.1c.3.3.6.6.7 1 .3.8.3 1.6.3 2.4-.2 1.4-.7 2.9-1.4 4.4zm-7.8 7.3c-1.1-1-2.2-2.1-3.1-3.3-.6-.8-1.1-1.6-1.6-2.5-.1.1-.1.3-.2.4-.4.9-.8 1.9-1.1 3l-.3 1.8c0 .6.1 1.3.4 1.8.3.5.8.8 1.4.9.6 0 1.3-.2 1.9-.4.9-.4 1.7-1 2.6-1.7zm6.9-5.7c-.5.8-1.1 1.7-1.7 2.4-1 1.2-2 2.3-3.2 3.3.8.7 1.7 1.3 2.6 1.7.6.3 1.3.5 1.9.5.6 0 1.1-.3 1.4-.8.3-.5.4-1.2.4-1.8 0-.6-.1-1.2-.2-1.8-.2-1.1-.6-2.2-1-3-.1-.2-.1-.3-.2-.5zm-2.2-3.5" clip-path="url(#b)"/>
  <ellipse cx="100.5" cy="144.7" transform="rotate(-8.735 100.6 144.7)" rx=".4" ry=".4"/>
  <ellipse cx="102.4" cy="144.1" transform="rotate(-8.735 102.455 144.06)" rx=".7" ry=".7"/>
  <ellipse cx="94.8" cy="129.5" transform="rotate(-19.932 94.874 129.533)" rx=".7" ry=".7"/>
  <ellipse cx="116.2" cy="144.8" transform="rotate(-19.932 116.228 144.803)" rx=".7" ry=".7"/>
  <ellipse cx="116.4" cy="129.9" transform="rotate(-19.932 116.467 129.923)" rx=".7" ry=".7"/>
  <path fill="#00B1BA" d="M71.9 63.9s-.4.4-1.2 1.1c-.8.7-1.9 1.7-3.3 3.2L65 70.6c-.9.9-1.8 1.9-2.8 2.9-.5.5-1 1.1-1.5 1.7-.5.6-1.1 1.2-1.6 1.8-1.1 1.3-2.2 2.6-3.4 4.1-4.7 5.8-9.9 13.3-15.2 22.1-2.6 4.4-5.3 9.2-7.9 14.3-1.3 2.6-2.7 5.1-4.1 7.8-1.4 2.6-2.7 5.4-3.9 8.3-2.4 5.7-4.5 11.9-5.9 18.4-.7 3.2-1.2 6.5-1.4 9.9-.2 3.3-.1 6.7.4 10s1.5 6.5 3.1 9.4c.2.4.4.7.6 1.1.2.4.4.7.7 1l.2.3.1.1c-.1-.1 0 .1 0 .1l.4.6.2.3.1.1.1.1.4.4c.2.3.5.6.8.9l.9.9c.6.6 1.2 1.1 1.9 1.6 2.6 2.1 5.8 3.6 9.2 4.5 3.4 1 7.1 1.4 10.8 1.4 3.7 0 7.6-.4 11.4-1 3.8-.7 7.7-1.6 11.5-2.8 7.6-2.4 15.1-5.7 22.4-9.5 14.6-7.7 28.3-17.8 40.7-29l2.4-2.2c.8-.7 1.5-1.4 2.3-2.2 1.5-1.5 3-2.9 4.5-4.4 3-3 5.8-6.1 8.6-9.2 5.6-6.3 10.8-12.8 15.5-19.6 4.7-6.8 9-13.8 12.6-21 3.6-7.2 6.6-14.6 8.6-22 .5-1.9 1-3.7 1.3-5.6.4-1.9.7-3.7.9-5.6.2-1.9.4-3.7.4-5.5 0-1.8 0-3.6-.2-5.4-.3-3.5-1.1-6.9-2.5-10-.7-1.5-1.5-3-2.4-4.3l-.1-.1s-.1-.2 0-.1l-.2-.3-.4-.6-.2-.3-.2-.2-.4-.4c-.2-.3-.5-.6-.8-.9-.3-.3-.6-.6-.8-.9-2.3-2.2-5-3.9-7.9-5.1-1.5-.6-3-1.1-4.5-1.4-1.6-.4-3.1-.6-4.7-.8-1.6-.2-3.2-.3-4.8-.3-1.6 0-3.2.1-4.7.2-3.1.2-6.2.7-9.2 1.4-3 .6-5.9 1.4-8.8 2.3l-4.2 1.5c-1.4.5-2.7.9-4.1 1.4-5.4 1.8-10.4 3.9-15.1 6-9.4 4.2-17.4 8.6-23.6 12.7-6.3 4.1-10.9 7.8-14 10.3-1.5 1.3-2.7 2.3-3.5 3l-1.1 1.1zm0 0s.4-.4 1.2-1.1c.8-.7 1.9-1.7 3.4-3 3-2.6 7.4-6.5 13.2-11.3 5.8-4.8 13-10.5 22-16.2 4.5-2.8 9.4-5.6 14.9-8.1l2.1-.9c.7-.3 1.4-.6 2.1-.8 1.4-.5 2.9-1 4.5-1.4 1.5-.4 3.1-.9 4.6-1.3 1.6-.4 3.2-.8 4.8-1.1 3.3-.7 6.7-1.2 10.2-1.5 1.8-.1 3.5-.2 5.4-.2 1.8 0 3.6.1 5.5.3 1.9.2 3.7.5 5.6.9 1.9.4 3.7 1 5.6 1.8 3.7 1.5 7.2 3.7 10.3 6.6.4.4.8.7 1.1 1.1.4.4.7.7 1.1 1.2l.5.6.3.3.2.3.4.6.2.3c.1.2.1.1.2.2l.1.2c1.2 1.7 2.2 3.6 3 5.5 1.7 3.9 2.6 8 3 12.2.2 2.1.3 4.2.2 6.2 0 2.1-.2 4.1-.4 6.2-.2 2.1-.6 4.1-1 6.1s-.9 4.1-1.4 6.1c-2.2 8-5.4 15.8-9.2 23.4-3.8 7.5-8.2 14.8-13.1 21.9-4.9 7-10.3 13.8-16 20.3-2.9 3.2-5.8 6.4-8.9 9.5l-4.6 4.6c-.8.8-1.6 1.5-2.4 2.2l-2.4 2.2-2.4 2.2c-.8.7-1.6 1.4-2.5 2.1-1.7 1.4-3.3 2.8-5 4.2-3.4 2.7-6.8 5.4-10.3 7.9-7 5-14.4 9.7-22 13.7s-15.5 7.5-23.6 10c-4.1 1.3-8.2 2.3-12.4 3.1-4.2.7-8.4 1.2-12.7 1.1-4.3 0-8.6-.5-12.7-1.7-4.2-1.2-8.2-3.1-11.7-5.8-.9-.7-1.7-1.4-2.5-2.1-.4-.4-.8-.8-1.1-1.2-.4-.4-.7-.8-1.1-1.2l-.5-.7-.1-.2-.1-.1-.2-.3-.4-.6-.2-.2-.1-.2-.2-.3c-.3-.4-.6-.9-.9-1.4-.3-.5-.5-.9-.8-1.4-2-3.7-3.2-7.7-3.9-11.7-.6-4-.8-7.9-.5-11.6.2-3.8.8-7.4 1.5-11 1.5-7.1 3.8-13.6 6.3-19.7 1.3-3 2.7-5.9 4-8.8 1.4-2.8 2.8-5.6 4.4-8.1 3.2-5 6.6-9.6 9.9-13.7 6.7-8.2 13.2-14.7 18.5-20 5.4-5.3 9.7-9.3 12.6-12 2.8-2.8 4.4-4.2 4.4-4.2z"/>
  <path fill="#00B1BA" d="M136.6 64.6s1.6 1.5 4.4 4.3c2.9 2.8 7.1 6.9 12.3 12.3 5.2 5.4 11.5 12.1 18.1 20.4 3.2 4.2 6.5 8.8 9.6 13.9 1.6 2.5 2.9 5.3 4.2 8.2 1.3 2.9 2.6 5.8 3.8 8.9 2.4 6.1 4.5 12.7 5.9 19.8.7 3.6 1.1 7.2 1.3 11 .1 3.8-.1 7.7-.8 11.6-.7 3.9-2 7.9-4.1 11.6-.2.5-.5.9-.8 1.4-.3.5-.6.9-.9 1.3l-.2.3-.1.2-.2.2-.4.6-.2.3-.1.1-.1.2-.6.7c-.4.5-.7.8-1.1 1.2-.4.4-.8.8-1.2 1.1-.8.7-1.6 1.4-2.5 2.1-3.5 2.6-7.6 4.4-11.8 5.5-4.2 1.1-8.5 1.5-12.8 1.4-4.3-.1-8.5-.6-12.7-1.4-4.2-.8-8.3-2-12.3-3.3-8.1-2.7-15.9-6.4-23.4-10.6-15-8.4-28.9-19.1-41.5-31-12.6-12-24-25.2-33.4-39.5-4.7-7.1-9-14.5-12.6-22.2-3.6-7.6-6.6-15.5-8.6-23.6-.5-2-.9-4.1-1.3-6.1s-.7-4.1-.8-6.2c-.2-2.1-.3-4.1-.3-6.2 0-2.1.1-4.2.4-6.2.5-4.1 1.5-8.3 3.3-12.1.9-1.9 1.9-3.8 3.2-5.5l.1-.2.2-.2.2-.3.4-.6.2-.3.3-.3.5-.6c.4-.4.7-.8 1.1-1.2l1.1-1.1c3.1-2.8 6.7-4.9 10.4-6.3 1.9-.7 3.7-1.2 5.6-1.6 1.9-.4 3.8-.7 5.6-.8 1.9-.2 3.7-.2 5.5-.2 1.8 0 3.6.1 5.3.3 3.5.4 6.9 1 10.1 1.7 1.6.4 3.2.8 4.8 1.3 1.6.5 3.1.9 4.6 1.4 1.5.5 3 1 4.4 1.5l2.1.9c.7.3 1.4.6 2.1 1 5.4 2.6 10.3 5.5 14.7 8.4 8.8 5.9 15.9 11.8 21.6 16.7 5.7 4.9 10 8.9 13 11.6 1.5 1.4 2.6 2.4 3.3 3.1.7.8 1.1 1.1 1.1 1.1zm0 0s-.4-.4-1.2-1.1c-.8-.7-1.9-1.7-3.4-3.1-3-2.6-7.5-6.4-13.7-10.6-6.2-4.2-14-8.8-23.3-13.2-4.7-2.2-9.7-4.4-15-6.3-1.3-.5-2.7-1-4.1-1.5-1.4-.5-2.7-1-4.1-1.5-2.8-1-5.7-1.8-8.7-2.5-3-.7-6.1-1.3-9.2-1.6-1.6-.2-3.2-.3-4.7-.3-1.6 0-3.2 0-4.8.2-1.6.1-3.2.4-4.7.7-1.6.3-3.1.8-4.6 1.3-3 1.1-5.7 2.7-8.1 4.9-.3.3-.6.5-.9.8-.3.3-.6.6-.8.9l-.4.4-.2.2-.2.3-.4.6-.2.3c.1-.1 0 0 0 .1l-.1.1c-.9 1.3-1.8 2.7-2.5 4.3-1.4 3-2.3 6.4-2.7 9.9-.2 1.8-.3 3.6-.3 5.4 0 1.8.1 3.7.3 5.5.2 1.9.4 3.7.8 5.6.3 1.9.7 3.7 1.2 5.6 1.9 7.5 4.7 14.9 8.1 22.2 3.5 7.3 7.6 14.4 12.1 21.3 9.2 13.8 20.2 26.7 32.4 38.3 12.2 11.6 25.7 21.9 40.1 30 7.2 4 14.6 7.5 22.2 10 3.8 1.3 7.6 2.3 11.4 3.1 3.8.8 7.6 1.2 11.4 1.3 3.7.1 7.4-.3 10.9-1.2 3.4-.9 6.6-2.3 9.3-4.3.7-.5 1.3-1 1.9-1.6l.9-.9c.3-.3.6-.6.8-.9l.4-.4.1-.1.1-.1.2-.3.4-.6s.1-.2.1-.1l.1-.1.2-.3c.2-.3.5-.7.7-1 .2-.4.4-.7.6-1.1 1.6-2.9 2.7-6.1 3.3-9.4.6-3.3.8-6.7.7-10-.1-3.4-.5-6.7-1.1-9.9-1.2-6.5-3.2-12.7-5.5-18.5-1.2-2.9-2.4-5.7-3.7-8.4-1.4-2.7-2.7-5.3-3.9-7.9-2.5-5.2-5.1-10-7.6-14.5-5.1-9-10.1-16.5-14.7-22.5-1.1-1.5-2.3-2.9-3.3-4.1-.5-.6-1.1-1.3-1.6-1.8-.5-.6-1-1.2-1.5-1.7-1-1.1-1.9-2.1-2.7-3-.8-.9-1.6-1.7-2.3-2.4l-3.2-3.2-1.3-1.3z"/>
  <ellipse cx="95" cy="15.7" fill="#010101" transform="rotate(-89.35 95.02 15.738)" rx="4.2" ry="4.2"/>
  <ellipse cx="149.9" cy="9.8" fill="#010101" transform="rotate(-89.35 149.865 9.832)" rx="4.2" ry="4.2"/>
  <ellipse cx="197.1" cy="127.2" fill="#010101" transform="rotate(-89.35 197.143 127.182)" rx="6.8" ry="6.8"/>
  <ellipse cx="14.2" cy="104.1" fill="#010101" transform="rotate(-89.35 14.205 104.063)" rx="6.8" ry="6.8"/>
  <ellipse cx="168" cy="6.8" fill="#010101" transform="rotate(-89.35 168.038 6.773)" rx="6.8" ry="6.8"/>
  <path fill="#00B1BA" d="M118.7 49.1c-8-5.3 41.5-13 55.4-10.9 13.9 2.1-10.2 61.7-11.9 58-1.4-3-23-33.5-43.5-47.1zm-29.9 2.3c7.3-3.8-32.5-20.2-44.2-20.6-11.7-.4.6 62.5 2.4 59.2 1.5-2.8 23.2-29 41.8-38.6z"/>
  <path fill="#FFF" d="M161.6 73l-.9-.6c-.6-.4-1.2-.7-1.9-1-1.3-.6-2.7-1-4.1-1.3-1.4-.3-2.8-.5-4.2-.7-.5-.1-.9-.1-1.4-.2l.7-.4c.5-.3 1-.6 1.6-.9.3-.2.5-.3.8-.5.2-.2.5-.3.8-.5.3-.2.5-.4.7-.6l.3-.3.2-.2.2-.2c.5-.4.9-.9 1.3-1.4.2-.3.4-.6.6-1.1.1-.3.2-.7-.1-1.2-.1-.2-.3-.4-.5-.6-.2-.1-.3-.2-.5-.3-.6-.2-.9-.2-1.3-.1-.4 0-.7.1-1 .1-.6.1-1.2.3-1.8.4-.6.2-1.2.4-1.7.6-1.1.4-2.2.9-3.3 1.4-1.1.5-2.1 1.1-3.2 1.7-.5.3-1 .6-1.5 1-.5.3-1 .7-1.4 1.1.5-.3 1.1-.5 1.6-.7.5-.2 1.1-.4 1.6-.6 1.1-.4 2.2-.8 3.3-1.1 1.1-.3 2.2-.7 3.3-1 1.1-.3 2.2-.6 3.3-.7h.5c-.3.3-.6.7-.9 1l-.2.1-.1.1-.3.3c-.2.2-.4.4-.6.5-.2.2-.4.3-.7.5-.2.2-.5.3-.7.5l-1.5.9c-1 .6-2 1.2-3 1.9l-2.1 1.3 2.4.4c1.5.3 2.9.3 4.3.4l4.2.3c1.4.2 2.7.4 4 .7.3.1.7.2 1 .3.3.1.6.2 1 .4.3.1.6.3.9.5l.9.6c-.1-.3-.4-.6-.6-.8zM59.4 49.7c-.1.3-.1.7-.2 1.1-.1.7-.1 1.4-.1 2.1.1 1.4.3 2.9.7 4.2.3 1.4.8 2.7 1.2 4.1.1.4.3.9.4 1.3l-.7-.5c-.5-.3-1-.7-1.5-1-.3-.2-.5-.3-.8-.5-.3-.1-.5-.3-.8-.4-.3-.1-.6-.3-.8-.4l-.4-.2-.2-.1H56c-.6-.2-1.2-.4-1.9-.5-.4 0-.7-.1-1.3 0-.3.1-.7.2-1 .6-.2.2-.3.5-.3.7v.5c.1.6.3.9.4 1.2.2.3.4.6.6.8.4.5.8 1 1.2 1.4.4.4.8.9 1.3 1.3.9.8 1.8 1.6 2.7 2.3.9.7 1.9 1.4 2.9 2.1l1.5.9c.5.3 1.1.5 1.6.7-.5-.3-.9-.7-1.4-1.1-.4-.4-.9-.8-1.3-1.2-.8-.8-1.7-1.6-2.5-2.5-.8-.8-1.6-1.7-2.4-2.5-.7-.9-1.5-1.7-2.1-2.6-.1-.1-.2-.3-.3-.4.4.1.9.2 1.3.4l.2.1.2.1.4.2c.3.1.5.2.7.3.2.1.5.2.7.4.2.1.5.3.7.4l1.5.9c1 .6 2 1.2 3 1.9l2.1 1.3-.7-2.3c-.4-1.4-1-2.7-1.5-4-.5-1.3-1.1-2.6-1.6-3.9-.5-1.3-.9-2.6-1.2-4-.1-.3-.1-.7-.2-1 0-.3-.1-.7-.1-1v-1c0-.3.1-.7.1-1 .2.1.1.4.1.8z"/>
  <text transform="translate(0 247.845)">
    <tspan x="0" y="0" fill="#00B1BA" font-family="Raleway-ExtraLight" font-size="50.623">atomi</tspan><tspan x="128.3" y="0" font-family="Raleway-ThinItalic" font-size="50.623">cat</tspan>
  </text>
  <path d="M117.9 135.1s1.1.2 2.9.6c.9.2 2.1.5 3.3.9.6.2 1.3.4 2 .6.7.2 1.4.5 2.2.8 1.6.5 3.2 1.2 5 1.9 1.7.7 3.6 1.5 5.5 2.3 1.9.8 3.8 1.7 5.8 2.5l3 1.2 3 1.2c4.1 1.5 8.2 3 12 4.4 1.9.7 3.8 1.4 5.5 2 1.8.6 3.4 1.2 5 1.8 3.1 1.1 5.6 2.1 7.4 2.7 1.8.7 2.8 1.1 2.8 1.1s-1-.3-2.9-.9c-1.8-.6-4.5-1.3-7.6-2.3-1.6-.5-3.3-1-5.1-1.6-1.8-.5-3.7-1.2-5.6-1.9-3.9-1.4-8-2.8-12.1-4.3-1-.4-2.1-.8-3.1-1.2-1-.4-2-.8-3-1.3-2-.9-3.9-1.7-5.8-2.6-1.9-.8-3.7-1.7-5.4-2.4-1.7-.7-3.3-1.5-4.9-2.1-1.5-.6-2.9-1.2-4.2-1.6-1.3-.4-2.3-.8-3.3-1.1-1.4-.4-2.4-.7-2.4-.7zm7.6 9.4s.7.4 1.8 1c1.1.7 2.8 1.6 4.8 2.8 1.9 1.2 4.2 2.5 6.7 4.1 2.4 1.5 5 3.1 7.6 4.7 1.3.8 2.6 1.7 3.8 2.5 1.2.9 2.5 1.7 3.6 2.5 2.3 1.7 4.4 3.4 6.3 4.6.9.6 1.8 1.2 2.6 1.7s1.5.9 2.1 1.2c1.2.6 1.9 1 1.9 1s-.7-.3-1.9-.8c-.6-.2-1.4-.6-2.2-1-.8-.4-1.8-.9-2.7-1.5-1-.6-2-1.3-3.1-2s-2.2-1.5-3.4-2.3c-1.2-.8-2.4-1.6-3.6-2.5-1.3-.8-2.6-1.6-3.8-2.4-2.6-1.7-5.1-3.3-7.5-4.9-2.4-1.6-4.6-3.1-6.5-4.3-1.9-1.3-3.4-2.4-4.5-3.1-1.4-.8-2-1.3-2-1.3zm-32-11.1s-.9 0-2.4.1-3.7.1-6.3.1h-8.9c-1.6 0-3.3 0-5 .1-1.7 0-3.4.1-5.2.2-1.7.1-3.5.3-5.2.4-1.7.2-3.4.3-5 .5-3.2.4-6.3.7-8.8 1-2.6.3-4.8.5-6.3.6-1.5.2-2.4.2-2.4.2s.9-.2 2.4-.5 3.6-.7 6.2-1.1c1.3-.2 2.7-.4 4.2-.7 1.5-.2 3.1-.4 4.7-.6 1.6-.2 3.3-.4 5-.5 1.7-.1 3.5-.3 5.2-.3 1.7 0 3.5-.1 5.2-.1h2.6c.8 0 1.7 0 2.5.1 3.3.1 6.3.2 8.9.3 2.6.1 4.8.2 6.3.2h2.3zm-4.9 6.1s-.8.2-2.1.6c-.7.2-1.5.4-2.4.7-.9.3-2 .6-3.1 1-2.3.7-4.9 1.7-7.7 2.7-1.4.5-2.9 1-4.4 1.4-1.5.4-3 .9-4.6 1.3-1.6.4-3.1.6-4.7 1-1.5.3-3 .7-4.5 1.1-2.9.8-5.6 1.5-7.9 2-2.4.5-4.4.7-5.8.8-.7.1-1.3 0-1.6.1h-.6s.8-.1 2.2-.3c1.4-.2 3.3-.6 5.6-1.2s4.9-1.5 7.8-2.3c1.4-.4 3-.8 4.5-1.1 1.5-.4 3.1-.7 4.6-1 1.5-.3 3.1-.8 4.6-1.2 1.5-.5 3-.9 4.4-1.4 1.4-.5 2.8-.9 4.1-1.3 1.3-.4 2.6-.8 3.7-1.1 1.1-.4 2.2-.6 3.2-.8.9-.2 1.8-.4 2.5-.6 1.4-.2 2.2-.4 2.2-.4zm5.6-10s-1.1-.2-3.1-.5c-1-.2-2.2-.4-3.5-.6-.7-.1-1.4-.2-2.2-.4l-2.4-.3c-1.7-.2-3.5-.5-5.4-.7-1.9-.3-4-.4-6.1-.7-2.1-.2-4.3-.5-6.5-.6-2.2-.2-4.5-.4-6.7-.5-4.5-.3-9.1-.5-13.3-.7-4.2-.3-8.2-.5-11.6-.7-6.8-.5-11.3-.9-11.3-.9v-.1h6.7c1.4 0 2.9 0 4.6.1 1.7.1 3.5.1 5.5.2 1.9 0 4 .2 6.1.3 2.1.1 4.3.3 6.5.4 2.2.2 4.5.4 6.8.5 2.3.2 4.5.4 6.7.7 2.2.2 4.4.5 6.5.7 2.1.3 4.2.5 6.1.8 1.9.3 3.8.6 5.4.9.8.1 1.6.3 2.4.4.8.1 1.5.3 2.2.4 1.4.3 2.5.5 3.5.7 2 .4 3.1.6 3.1.6zm50.4 2.9c-2.1 0-4.2-.1-6.1 0-1.9 0-3.8.1-5.5.1h-2.4c-.8 0-1.5.1-2.2.1-1.4.1-2.6.1-3.6.2-2 .1-3.1.2-3.1.2v-.1s1.1-.1 3.1-.2c1-.1 2.2-.2 3.6-.3.7-.1 1.4-.1 2.2-.2.8 0 1.6-.1 2.4-.1 1.7-.1 3.5-.1 5.5-.2s4-.1 6.1-.1h6.6c2.2 0 4.5.1 6.8.1 2.3.1 4.5.2 6.8.2l6.6.3c2.1.2 4.2.2 6.1.4 1.9.2 3.8.3 5.5.5 1.7.1 3.2.3 4.6.4 1.4.1 2.6.3 3.6.4 2 .2 3.1.4 3.1.4v.1s-4.5-.1-11.3-.4c-3.4-.2-7.4-.4-11.6-.6-4.2-.3-8.8-.5-13.3-.8-2.3-.1-4.5-.2-6.8-.2"/>
</svg>
